<svg width="288" height="300" viewBox="0 0 309 368" fill="none" xmlns="http://www.w3.org/2000/svg">
<path fill-rule="evenodd" clip-rule="evenodd" d="M177.738 72.4901C182.346 67.0814 185.464 60.4529 184.943 53.0255C183.442 31.625 153.651 36.3328 147.857 47.1339C142.062 57.9351 142.75 85.333 150.24 87.2635C153.226 88.0333 159.589 86.1475 166.065 82.2443L162 111H186L177.738 72.4901Z" fill="#B28B67"/>
<path fill-rule="evenodd" clip-rule="evenodd" d="M161.536 34.6853C164.699 34.1665 173.216 33.8099 174.787 33.8101C175.79 33.8101 176.878 34.0395 177.473 33.1178C177.959 32.3631 177.781 31.0867 177.926 30.2109C178.095 29.1935 178.335 28.1892 178.577 27.1874C179.267 24.3369 180.31 21.625 181.769 19.0788C184.507 14.3019 188.519 10.5601 193.583 8.38278C199.176 5.97866 205.504 5.42817 211.52 5.91581C217.957 6.43752 223.784 8.56259 229.862 10.5624C235.654 12.4681 241.72 13.2182 247.778 12.2876C253.882 11.35 258.493 8.04203 263.641 4.90232C268.911 1.68801 274.934 -0.414264 281.165 0.0689985C286.98 0.520259 292.341 2.92161 297.15 6.12947C301.649 9.13081 305.362 12.7418 307.458 17.824C309.713 23.2909 309.711 29.2918 306.003 34.1233C300.628 41.1265 290.65 42.9376 282.349 42.7575C277.547 42.6537 272.832 41.7772 268.299 40.1828C262.253 38.0564 257.029 34.4523 251.373 31.528C248.719 30.1558 245.975 29.0288 243.099 28.217C240.309 27.4289 237.56 27.0675 235.034 28.7533C232.361 30.5367 229.966 32.2885 226.908 33.4049C223.974 34.476 220.867 35.075 217.742 35.0509C211.661 35.0039 205.667 33.1093 199.761 31.8402C194.946 30.8056 189.793 29.7743 184.883 30.769C182.834 31.1841 179.841 32.041 179.101 34.1702C191.556 36.4274 196.447 51.8302 192.936 63.1372C191.041 69.24 179.65 76.3742 175.221 73.1658C172.415 71.1333 174.119 68.4648 175.221 66.7033C177.332 63.3299 178.055 58.9967 174.148 56.648C170.778 54.6224 167.235 59.4327 167.168 59.4274C166.242 59.3544 158.24 54.8285 152.726 48.2241C147.287 48.5466 146.461 44.96 147.76 42.0269C149.059 39.0938 157.166 35.4024 161.536 34.6853Z" fill="#191847"/>
<path d="M196 368C153.474 368 119 335.093 119 294.5C119 253.907 153.474 221 196 221C238.526 221 273 253.907 273 294.5C273 335.093 238.526 368 196 368Z" fill="#C5CFD6"/>
<path fill-rule="evenodd" clip-rule="evenodd" d="M50.4908 356.66C63.3036 328.302 72.5696 303.608 76.289 290.58C82.6574 268.273 87.5022 248.643 88.7267 241.313C91.6466 223.832 66.2647 222.814 62.9098 231.502C57.8319 244.651 48.9671 287.853 38.3154 353.107L50.4908 356.66ZM199.112 267.664C187.356 263.017 146.188 248.475 126.333 244.361C120.627 243.179 115.097 242.081 109.898 241.088C94.444 238.138 86.4374 266.017 101.321 268.16C138.388 273.494 190.937 279.003 195.434 279.622C201.737 280.488 206.5 270.584 199.112 267.664Z" fill="#B28B67"/>
<path fill-rule="evenodd" clip-rule="evenodd" d="M100.413 233.416L164 201.047V194H156.438C94.9201 209.676 63.4846 219.722 62.1313 224.138C62.1168 224.185 62.1034 224.233 62.0913 224.281C62.0603 224.321 62.0299 224.362 62 224.403C49.8085 241.17 42.5071 323.027 40.1106 329.156L63.4723 332.641C72.4087 299.503 101 276.418 100.241 236.729C100.446 235.565 100.497 234.461 100.413 233.416Z" fill="#1F28CF"/>
<path fill-rule="evenodd" clip-rule="evenodd" d="M158.717 252.64C164.535 251.476 169.893 250.436 174.477 249.632C204.091 244.438 212.726 228.586 207.62 194H153.058C144.145 196.56 97.826 215.985 73.7934 226.316C57.8874 233.154 62.9015 257.804 71.909 264.219C71.958 264.613 72.1201 264.88 72.4087 265C120.863 285.083 159.195 274.545 172 277.912L177.923 259.228L158.717 252.64Z" fill="#2B44FF"/>
<path fill-rule="evenodd" clip-rule="evenodd" d="M195.092 264.694C198.267 264.997 200.521 265.474 201.853 266.124C203.474 266.915 205.707 268.338 208.553 270.395C207.636 272.275 199.395 289.173 183.829 321.088C178.831 320.282 176.851 318.375 177.888 315.367C178.925 312.359 179.761 309.849 180.397 307.835L181.385 279.15C181.404 278.598 181.867 278.166 182.419 278.185C182.428 278.185 182.438 278.186 182.447 278.186L186.86 278.463C189.367 276.434 191.021 274.598 191.823 272.955C192.473 271.62 192.833 269.514 192.902 266.637L192.902 266.637C192.929 265.533 193.845 264.659 194.95 264.685C194.997 264.686 195.045 264.689 195.092 264.694Z" fill="#E4E4E4"/>
<path fill-rule="evenodd" clip-rule="evenodd" d="M56.3219 351.402C57.4406 354.388 58 356.623 58 358.106C58 359.909 57.6996 362.54 57.0988 366C55.0068 366 36.2062 366 0.696945 366C-0.768738 361.155 0.0773392 358.539 3.23518 358.152C6.39301 357.766 9.01628 357.417 11.105 357.106L37.32 345.419C37.8244 345.194 38.4157 345.421 38.6405 345.925C38.6444 345.934 38.6481 345.942 38.6517 345.951L40.3368 350.039C43.2601 351.403 45.6356 352.085 47.4633 352.085C48.9483 352.085 50.999 351.485 53.6155 350.285L53.6155 350.285C54.6196 349.825 55.8067 350.266 56.267 351.27C56.2869 351.313 56.3052 351.357 56.3219 351.402Z" fill="#E4E4E4"/>
<path fill-rule="evenodd" clip-rule="evenodd" d="M102 166.617L65.7654 150.704C59.418 144.379 53.2886 139.572 47.3773 136.282C45.6097 135.719 42.5899 135.549 45.8118 140.255C49.0338 144.961 52.2111 150.056 50.9237 151.705C49.6363 153.355 45.907 151.534 44.4337 154.216C43.4514 156.004 49.7377 158.143 63.2925 160.633L90.4301 181.439L102 166.617ZM248.492 171L228 175.066C248.608 213.471 259.66 233.826 261.155 236.13C264.52 241.315 261.38 250.817 260.221 255.821C267.496 257.515 264.627 246.565 273.833 248.851C282.236 250.938 289.361 256.293 297.196 249.071C298.159 248.183 298.865 245.407 295.58 243.984C287.397 240.437 275.308 233.796 273.348 231.218C270.674 227.702 262.389 207.63 248.492 171Z" fill="#B28B67"/>
<path fill-rule="evenodd" clip-rule="evenodd" d="M172.305 94.332L163.658 92.8489C144.824 111.119 137.138 155.012 124.586 160.822C112.719 166.316 95.8964 161 75.9002 153.822L69.7765 167.505C87.9449 187.161 126.651 203.767 142.34 194.287C167.424 179.13 173.214 124.994 172.305 94.332Z" fill="#DB2721"/>
<path fill-rule="evenodd" clip-rule="evenodd" d="M210 203C175.328 203 149.824 203 133.489 203C129.992 203 130.651 197.952 131.157 195.404C136.989 166.004 159.759 134.312 159.759 92.4607L181.828 89C200.083 118.358 206.395 154.505 210 203Z" fill="#DDE3E9"/>
<path fill-rule="evenodd" clip-rule="evenodd" d="M217.631 173.233C233.229 201.368 246.339 221.623 256.963 234L273 230.859C262.669 166.791 232.753 119.504 183.252 89H179.269L174.514 89C154.701 156.537 149.239 201.537 158.128 224H227C225.91 207.563 222.417 190.181 217.631 173.233H217.631Z" fill="#FF4133"/>
</svg>
