<svg width="107" height="197" viewBox="0 0 107 197" fill="none" xmlns="http://www.w3.org/2000/svg">
<path fill-rule="evenodd" clip-rule="evenodd" d="M65.3471 10.3451C68.586 8.57078 72.257 7.26281 75.8965 7.32868C83.6357 7.46912 88.4245 14.5894 90.6762 21.0359C93.0997 27.9745 94.3838 36.1008 101.683 39.5432C105.039 41.126 108.766 41.8716 112.095 43.5189C115.652 45.2793 118.808 47.6605 121.534 50.4846C126.538 55.6722 130.567 62.5188 130.497 70.0984C130.435 76.7718 126.859 84.2094 130.455 90.3244C134.206 96.7035 143.09 99.1634 149.315 102.536C156.361 106.354 163.605 111.939 167.129 119.241C170.507 126.239 170.017 134.885 167.143 142.355C161.403 157.281 148.699 168.571 133.889 174.483C127.601 176.993 120.384 179.568 113.733 178.384C111.677 178.019 110.367 177.208 108.778 175.987C107.354 174.893 105.828 174.421 104.086 173.942C100.26 172.888 96.9799 170.714 94.351 167.862C84.1414 156.783 82.4457 138.684 85.6642 123.91C86.427 120.41 86.9054 117.144 84.8264 114.172C82.6566 111.07 79.2947 108.837 76.2428 106.647C73.2269 104.482 69.9858 102.564 67.3061 99.9903C64.4993 97.2942 62.7756 93.9825 61.7219 90.2209C59.743 83.1549 60.4014 75.6361 62.5925 68.4338C64.7028 61.4964 67.6025 54.5046 65.0693 47.5433C62.3849 40.1651 55.0364 35.5947 54.4041 27.2509C54.1423 23.7958 54.7315 19.9063 56.8775 16.9097C58.9355 14.0357 62.301 12.0138 65.3471 10.3451Z" fill="#FC2BDA"/>
<path fill-rule="evenodd" clip-rule="evenodd" d="M77.6996 25.987C77.3972 24.9734 78.3575 23.9119 79.3817 23.8008C80.7299 23.6547 81.1266 24.7992 81.4687 25.8233C82.5205 28.971 84.0916 31.812 85.9601 34.5293C89.8443 40.179 94.8714 44.8088 99.3895 49.9232C103.904 55.0332 107.277 60.8207 108.294 67.722C109.252 74.2289 109.432 80.867 110.363 87.3932C111.185 93.1452 112.04 99.2154 115.733 103.811C119.288 108.234 124.517 110.909 128.879 114.45C137.911 121.779 144.263 131.366 148.612 142.102C150.632 147.088 152.381 152.234 153.035 157.65C153.412 160.769 153.926 164.982 152.197 167.926C151.4 169.283 149.579 170.367 148.128 169.402C146.766 168.498 146.829 166.235 146.616 164.779C145.695 158.476 143.743 152.436 141.263 146.65C138.86 141.046 136.067 135.607 132.235 130.866C128.678 126.466 124.439 122.928 119.792 119.689C115.058 116.388 110.198 113.125 106.951 108.275C103.652 103.349 102.649 97.4015 102.071 91.5134C101.459 85.2857 101.365 79.0379 101.334 72.7551C101.303 66.6329 100.12 61.2985 96.9723 56.129C90.7531 45.9156 81.2215 37.797 77.6996 25.987Z" fill="#440B8D"/>
</svg>
