<svg xmlns="http://www.w3.org/2000/svg" width="85" height="123" fill="none" viewBox="0 0 85 123"><path fill="#440B8D" fill-rule="evenodd" d="M112.518 0C103.002 0 94.6358 3.00621 88.8709 7.27213C82.1226 12.266 80.7597 18.3645 78.0194 24.3163C76.6559 27.2782 74.3107 30.2186 70.2009 32.231C66.4628 34.0611 61.7173 34.4274 57.243 35.3215C48.301 37.1085 41.0804 41.4131 38.2288 46.6655C34.7499 53.0724 38.4347 59.5336 37.8002 66.0266C37.2178 71.9895 27.3528 75.7097 19.4157 78.5682C11.5894 81.3869 4.53885 84.0255 2.18167 89.5166C-0.317963 95.3405 -1.15657 101.841 2.30557 107.594C8.06981 117.174 24.9393 121.392 41.2396 122.046C56.0327 122.639 74.6333 121.708 85.7428 115.308C92.3905 111.478 94.798 106.122 94.4993 100.794C94.3137 97.4801 93.2124 94.1972 91.7884 90.9952C90.7792 88.7256 89.4156 86.4658 89.0271 84.1207C87.9946 77.8814 97.6705 76.683 105.907 74.9699C116.373 72.7927 123.7 68.6805 128.795 62.9514C133.54 57.6171 135.531 51.629 132.686 45.756C131.234 42.7571 128.599 40.0363 125.025 37.7221C123.452 36.7035 121.235 35.854 119.815 34.7838C118.49 33.7844 118.779 32.4895 119.235 31.319C121.347 25.9123 127.926 21.4352 130.279 16.0381C132.404 11.1666 131.148 5.10363 123.675 1.96082C120.446 0.602846 116.464 0.014984 112.518 0Z" clip-rule="evenodd"/><path fill="#F013F4" fill-rule="evenodd" d="M99.5513 14.0877C89.4653 20.4907 86.7238 29.1782 85.9192 37.5985C85.4685 42.3201 85.9376 47.3004 83.61 51.8802C81.6184 55.8001 76.9495 58.7965 72.1369 61.6284C62.4493 67.3293 51.6453 73.1249 48.8118 81.3755C47.1492 86.2174 48.2715 91.2185 45.9741 96.0071C43.8852 100.36 40.2073 104.636 35.7337 108.312C32.1318 111.271 27.4391 113.538 23.5017 116.297C22.3005 117.139 20.5797 118.379 21.0755 119.568C21.6556 120.96 24.6317 121.401 26.7432 121.182C31.6663 120.672 35.8103 117.871 39.0292 115.834C43.7361 112.856 47.7359 109.652 50.9868 106.059C54.5959 102.068 57.5018 97.8337 58.7434 93.3567C60.032 88.712 59.3907 83.8715 62.3329 79.414C67.2839 71.9137 79.2926 67.4875 87.9749 61.6417C98.7924 54.3574 97.1791 45.2915 96.0711 36.3311C95.4625 31.407 94.8574 25.8462 99.0323 21.3504C100.626 19.6342 104.179 18.034 104.864 16.0833C105.492 14.2961 102.067 12.49 99.5513 14.0877Z" clip-rule="evenodd"/></svg>