<svg width="106" height="30" viewBox="0 0 106 30" fill="none" xmlns="http://www.w3.org/2000/svg">
<path d="M11.556 3.648C14.076 3.648 15.744 4.692 16.56 6.78C16.704 7.188 16.776 7.596 16.776 8.004C16.776 9.132 16.272 10.224 15.264 11.28C14.256 12.312 12.804 13.632 10.908 15.24C9.036 16.848 7.716 18.024 6.948 18.768C5.148 20.496 4.248 21.912 4.248 23.016C4.248 23.688 4.692 24.024 5.58 24.024C7.356 24.024 10.188 23.7 14.076 23.052L14.4 23.016C14.712 23.016 14.868 23.172 14.868 23.484C14.868 23.796 14.796 24.144 14.652 24.528C14.028 26.592 11.688 27.624 7.632 27.624C6.24 27.624 5.1 27.456 4.212 27.12C3.324 26.784 2.64 26.064 2.16 24.96C1.872 24.336 1.728 23.676 1.728 22.98C1.728 21.588 2.316 20.184 3.492 18.768C4.692 17.352 6.396 15.48 8.604 13.152C10.812 10.8 12.228 9.264 12.852 8.544C13.476 7.8 13.788 7.332 13.788 7.14C13.788 6.732 12.936 6.528 11.232 6.528C10.344 6.528 9.06 6.6 7.38 6.744C6.012 7.56 4.248 7.968 2.088 7.968C1.488 7.968 1.044 7.884 0.756 7.716C0.492 7.524 0.36 7.092 0.36 6.42C0.36 5.748 0.444 5.196 0.612 4.764C0.804 4.332 1.26 3.96 1.98 3.648C2.724 3.312 3.9 2.856 5.508 2.28C7.14 1.704 8.124 1.416 8.46 1.416C8.796 1.416 9.024 1.512 9.144 1.704C9.288 1.872 9.432 2.16 9.576 2.568L9.828 3.18C9.972 3.516 10.2 3.684 10.512 3.684L11.556 3.648ZM31.0517 13.512C31.0517 15.456 30.3317 17.1 28.8917 18.444C27.9557 21.948 26.8157 24.732 25.4717 26.796C24.6797 27.972 23.7557 28.56 22.6997 28.56C22.1477 28.56 21.4997 28.344 20.7557 27.912C18.7637 26.688 17.5997 25.272 17.2637 23.664C16.9277 22.056 16.7597 20.376 16.7597 18.624C16.7597 14.064 17.9117 9.384 20.2157 4.584C20.5037 4.032 20.8037 3.756 21.1157 3.756C21.1637 3.756 21.7277 3.972 22.8077 4.404C23.4077 3.012 24.6317 2.316 26.4797 2.316C27.4397 2.316 28.1477 2.496 28.6037 2.856C29.6357 3.672 30.1517 5.736 30.1517 9.048C30.1517 10.152 30.0677 11.436 29.8997 12.9L30.7637 11.172C30.9557 11.988 31.0517 12.768 31.0517 13.512ZM27.2357 6.456C27.2357 6.048 27.1397 5.652 26.9477 5.268C26.7797 4.884 26.5397 4.692 26.2277 4.692C25.9157 4.692 25.6397 4.824 25.3997 5.088C25.1837 5.352 24.9317 5.724 24.6437 6.204C23.2757 8.412 22.5917 11.088 22.5917 14.232C22.5917 15.024 22.8077 15.852 23.2397 16.716C23.6957 17.556 24.2837 17.976 25.0037 17.976C25.1237 17.976 25.2797 17.952 25.4717 17.904C26.6477 14.376 27.2357 10.56 27.2357 6.456ZM24.8237 19.632C24.0797 19.44 23.3957 19.104 22.7717 18.624C22.1477 18.12 21.6917 17.532 21.4037 16.86C20.8757 15.468 20.6117 14.232 20.6117 13.152C20.6117 12.072 20.6837 11.172 20.8277 10.452C19.7957 12.588 19.2797 15 19.2797 17.688C19.2797 20.352 19.5797 22.668 20.1797 24.636C20.3957 25.356 20.7317 25.716 21.1877 25.716C21.4997 25.716 21.7877 25.5 22.0517 25.068C23.0837 23.628 24.0077 21.816 24.8237 19.632ZM38.603 5.376C38.603 5.496 38.603 5.616 38.603 5.736V6.204C38.603 7.5 38.039 8.808 36.911 10.128C35.807 11.424 34.583 12.504 33.239 13.368C32.903 13.56 32.627 13.656 32.411 13.656C32.003 13.656 31.667 13.356 31.403 12.756C31.163 12.132 31.043 11.616 31.043 11.208C31.043 10.776 31.199 10.344 31.511 9.912C33.575 7.176 35.843 4.968 38.315 3.288C38.795 2.952 39.335 2.784 39.935 2.784C40.559 2.784 41.231 2.976 41.951 3.36C42.959 3.888 43.463 4.896 43.463 6.384C43.463 7.104 43.295 7.992 42.959 9.048C42.647 10.08 42.347 11.016 42.059 11.856C41.795 12.672 41.639 13.164 41.591 13.332C42.743 12.252 44.111 10.464 45.695 7.968C46.295 7.008 46.715 6.348 46.955 5.988C48.203 4.02 48.959 2.76 49.223 2.208C49.223 1.608 49.403 1.308 49.763 1.308C50.003 1.308 50.279 1.464 50.591 1.776C50.927 2.064 51.179 2.28 51.347 2.424C51.539 2.568 51.635 2.724 51.635 2.892C51.635 3.06 51.563 3.264 51.419 3.504C49.619 7.584 46.655 11.808 42.527 16.176C42.479 16.224 42.455 16.284 42.455 16.356C42.455 16.716 42.863 16.896 43.679 16.896C44.855 17.208 45.779 18.108 46.451 19.596C46.547 19.788 46.787 20.376 47.171 21.36C47.579 22.32 47.903 23.052 48.143 23.556C48.383 24.132 48.683 24.42 49.043 24.42C49.187 24.42 49.355 24.36 49.547 24.24C49.739 24.12 49.871 24.06 49.943 24.06C50.303 24.06 50.483 24.516 50.483 25.428C50.483 26.316 50.423 26.928 50.303 27.264C50.183 27.576 49.811 27.96 49.187 28.416C48.587 28.872 48.083 29.1 47.675 29.1C47.291 29.1 46.751 28.692 46.055 27.876C45.359 27.036 44.663 25.584 43.967 23.52C43.271 21.456 42.815 20.196 42.599 19.74C42.335 19.116 42.011 18.804 41.627 18.804C41.267 18.804 40.955 19.02 40.691 19.452C40.451 19.86 40.139 20.052 39.755 20.028C39.395 21.708 39.215 23.064 39.215 24.096C39.215 25.104 39.251 25.824 39.323 26.256C39.395 26.688 39.431 27.024 39.431 27.264C39.431 27.504 39.263 27.78 38.927 28.092C38.591 28.404 38.255 28.56 37.919 28.56C37.607 28.56 37.211 28.296 36.731 27.768C36.419 27.456 36.251 27.18 36.227 26.94C36.179 26.484 36.131 25.884 36.083 25.14C36.035 24.396 36.011 23.748 36.011 23.196C36.011 21.348 36.215 19.5 36.623 17.652C37.055 15.804 37.655 13.716 38.423 11.388C39.551 7.98 40.115 6.036 40.115 5.556C40.115 5.076 39.899 4.836 39.467 4.836C38.939 4.836 38.651 5.016 38.603 5.376ZM57.6551 5.016C57.6551 4.2 57.4871 3.792 57.1511 3.792C56.8151 3.792 56.4671 4.044 56.1071 4.548C55.7711 5.052 55.6031 5.4 55.6031 5.592C55.6031 5.784 55.6631 6.144 55.7831 6.672C55.9031 7.2 55.9631 7.752 55.9631 8.328C55.9631 8.88 55.7591 10.056 55.3511 11.856C54.9431 13.632 54.6071 14.82 54.3431 15.42C54.1031 15.996 53.8151 16.284 53.4791 16.284C53.2151 16.284 52.9751 16.176 52.7591 15.96C52.5671 15.72 52.3271 15.372 52.0391 14.916C51.7751 14.46 51.5231 14.076 51.2831 13.764C51.0431 13.428 50.9231 13.056 50.9231 12.648C50.9231 12.24 51.2951 11.208 52.0391 9.552C52.7831 7.872 53.4071 6.54 53.9111 5.556C53.5751 5.148 53.4071 4.872 53.4071 4.728C53.4071 4.44 53.6111 4.296 54.0191 4.296C54.1391 4.296 54.2951 4.344 54.4871 4.44C54.5351 4.368 54.6431 4.176 54.8111 3.864C54.9791 3.528 55.0991 3.3 55.1711 3.18C55.2431 3.06 55.3631 2.88 55.5311 2.64C55.7231 2.376 55.8911 2.184 56.0351 2.064C56.4911 1.776 56.9231 1.632 57.3311 1.632C59.1311 1.632 60.0191 4.248 59.9951 9.48C59.9951 9.624 59.9951 9.732 59.9951 9.804C59.9951 15.348 59.3471 21.696 58.0511 28.848C57.9311 29.376 57.6671 29.64 57.2591 29.64C56.8031 29.64 56.2751 29.352 55.6751 28.776C55.0751 28.2 54.6191 27.756 54.3071 27.444C53.4671 26.604 52.9031 25.992 52.6151 25.608C52.2551 25.2 52.0751 24.816 52.0751 24.456C52.0751 24.096 52.2071 23.652 52.4711 23.124C52.7591 22.572 53.0591 22.296 53.3711 22.296C53.6831 22.296 53.9831 22.548 54.2711 23.052C54.5831 23.556 54.8351 23.808 55.0271 23.808C55.2191 23.808 55.3391 23.628 55.3871 23.268C55.4591 22.884 55.5311 22.356 55.6031 21.684C55.7951 20.268 56.1791 17.76 56.7551 14.16C57.3551 10.56 57.6551 7.884 57.6551 6.132V5.016ZM69.354 21.072C69.354 23.304 69.558 24.42 69.966 24.42C70.134 24.42 70.35 24.228 70.614 23.844C70.998 23.196 71.442 22.332 71.946 21.252C74.106 16.668 75.186 11.928 75.186 7.032C75.186 5.832 75.138 4.776 75.042 3.864C74.946 2.928 74.898 2.412 74.898 2.316C74.898 1.428 75.234 0.983998 75.906 0.983998C76.338 0.983998 76.662 1.368 76.878 2.136C77.382 4.056 77.634 6.216 77.634 8.616C77.634 14.472 75.93 20.388 72.522 26.364C71.802 27.588 70.986 28.2 70.074 28.2C69.546 28.2 69.018 27.96 68.49 27.48C66.978 26.088 66.222 23.976 66.222 21.144C66.222 16.632 67.254 11.784 69.318 6.6C69.414 6.36 69.462 6.168 69.462 6.024C69.462 5.664 69.318 5.484 69.03 5.484C68.886 5.484 68.682 5.58 68.418 5.772C68.154 5.94 67.938 6.144 67.77 6.384C67.626 6.6 67.47 6.864 67.302 7.176C67.134 7.488 67.002 7.716 66.906 7.86C65.538 9.732 64.458 10.896 63.666 11.352C63.306 11.544 62.934 11.64 62.55 11.64C62.19 11.64 61.794 11.424 61.362 10.992C60.954 10.56 60.75 10.176 60.75 9.84C60.75 9.504 60.822 9.144 60.966 8.76C61.854 6.816 63.882 4.872 67.05 2.928C67.626 2.568 68.322 2.388 69.138 2.388C69.954 2.388 70.686 2.736 71.334 3.432C71.982 4.104 72.306 4.944 72.306 5.952C72.306 6.528 72.246 7.02 72.126 7.428C72.006 7.812 71.838 8.352 71.622 9.048C71.43 9.744 71.298 10.2 71.226 10.416C71.178 10.632 71.058 11.064 70.866 11.712C70.698 12.336 70.578 12.78 70.506 13.044C70.458 13.308 70.362 13.728 70.218 14.304C70.074 14.88 69.966 15.336 69.894 15.672C69.846 16.008 69.774 16.44 69.678 16.968C69.606 17.496 69.558 17.952 69.534 18.336C69.414 19.536 69.354 20.448 69.354 21.072ZM85.4286 5.016C85.4286 4.2 85.2606 3.792 84.9246 3.792C84.5886 3.792 84.2406 4.044 83.8806 4.548C83.5446 5.052 83.3766 5.4 83.3766 5.592C83.3766 5.784 83.4366 6.144 83.5566 6.672C83.6766 7.2 83.7366 7.752 83.7366 8.328C83.7366 8.88 83.5326 10.056 83.1246 11.856C82.7166 13.632 82.3806 14.82 82.1166 15.42C81.8766 15.996 81.5886 16.284 81.2526 16.284C80.9886 16.284 80.7486 16.176 80.5326 15.96C80.3406 15.72 80.1006 15.372 79.8126 14.916C79.5486 14.46 79.2966 14.076 79.0566 13.764C78.8166 13.428 78.6966 13.056 78.6966 12.648C78.6966 12.24 79.0686 11.208 79.8126 9.552C80.5566 7.872 81.1806 6.54 81.6846 5.556C81.3486 5.148 81.1806 4.872 81.1806 4.728C81.1806 4.44 81.3846 4.296 81.7926 4.296C81.9126 4.296 82.0686 4.344 82.2606 4.44C82.3086 4.368 82.4166 4.176 82.5846 3.864C82.7526 3.528 82.8726 3.3 82.9446 3.18C83.0166 3.06 83.1366 2.88 83.3046 2.64C83.4966 2.376 83.6646 2.184 83.8086 2.064C84.2646 1.776 84.6966 1.632 85.1046 1.632C86.9046 1.632 87.7926 4.248 87.7686 9.48C87.7686 9.624 87.7686 9.732 87.7686 9.804C87.7686 15.348 87.1206 21.696 85.8246 28.848C85.7046 29.376 85.4406 29.64 85.0326 29.64C84.5766 29.64 84.0486 29.352 83.4486 28.776C82.8486 28.2 82.3926 27.756 82.0806 27.444C81.2406 26.604 80.6766 25.992 80.3886 25.608C80.0286 25.2 79.8486 24.816 79.8486 24.456C79.8486 24.096 79.9806 23.652 80.2446 23.124C80.5326 22.572 80.8326 22.296 81.1446 22.296C81.4566 22.296 81.7566 22.548 82.0446 23.052C82.3566 23.556 82.6086 23.808 82.8006 23.808C82.9926 23.808 83.1126 23.628 83.1606 23.268C83.2326 22.884 83.3046 22.356 83.3766 21.684C83.5686 20.268 83.9526 17.76 84.5286 14.16C85.1286 10.56 85.4286 7.884 85.4286 6.132V5.016ZM88.8834 6.06C88.8834 5.748 89.0154 5.508 89.2794 5.34C90.6474 4.428 92.5794 3.672 95.0754 3.072C96.1074 2.856 96.9594 2.748 97.6314 2.748C101.039 2.748 103.499 4.836 105.011 9.012C105.539 10.5 105.803 12.072 105.803 13.728C105.803 16.224 105.143 18.744 103.823 21.288C102.503 23.832 101.147 25.884 99.7554 27.444C98.9874 28.26 98.1714 28.668 97.3074 28.668C96.4434 28.668 95.7714 28.332 95.2914 27.66C94.8114 26.988 94.5714 26.136 94.5714 25.104C94.5714 24.048 94.7634 22.872 95.1474 21.576C95.5314 20.28 96.1314 19.464 96.9474 19.128C96.8274 19.68 96.7674 20.268 96.7674 20.892C96.7674 21.492 96.9714 22.236 97.3794 23.124C97.8114 24.012 98.3154 24.456 98.8914 24.456C99.4674 24.456 99.9354 24.12 100.295 23.448C101.783 20.76 102.527 17.7 102.527 14.268C102.527 10.188 101.459 7.548 99.3234 6.348C98.6994 6.012 98.0994 5.844 97.5234 5.844C96.9474 5.844 96.3234 6.012 95.6514 6.348C95.8434 7.38 95.9394 8.688 95.9394 10.272C95.9394 11.832 95.6634 14.34 95.1114 17.796C94.5834 21.228 94.3194 23.844 94.3194 25.644V26.796C94.3194 27.42 94.1754 27.828 93.8874 28.02C93.5994 28.212 93.2994 28.308 92.9874 28.308C92.0994 28.308 91.4754 26.664 91.1154 23.376C90.9714 22.056 90.8514 21.168 90.7554 20.712C90.8274 20.688 90.9354 20.676 91.0794 20.676C91.5114 20.676 92.0154 20.988 92.5914 21.612V20.676C92.5674 18.78 92.8194 15.324 93.3474 10.308C93.3714 10.116 93.3834 9.768 93.3834 9.264C93.3834 8.736 93.3354 8.196 93.2394 7.644C93.0714 7.74 92.7354 7.992 92.2314 8.4C91.0554 9.36 90.2154 9.84 89.7114 9.84C89.2314 9.84 88.9914 9.42 88.9914 8.58L89.0274 7.464L88.8834 6.06Z" fill="#FF0606"/>
</svg>
