<svg width="60" height="60" viewBox="0 0 102 115" fill="none" xmlns="http://www.w3.org/2000/svg">
<g filter="url(#filter0_d)">
<path d="M62 51.2344C62 51.0625 61.88 50.9219 61.7333 50.9219H59.7333C59.5867 50.9219 59.4667 51.0625 59.4667 51.2344C59.4667 56.7148 55.6767 61.1562 51 61.1562C46.3233 61.1562 42.5333 56.7148 42.5333 51.2344C42.5333 51.0625 42.4133 50.9219 42.2667 50.9219H40.2667C40.12 50.9219 40 51.0625 40 51.2344C40 57.8242 44.22 63.2617 49.6667 64.0312V68.0312H44.8233C44.3667 68.0312 44 68.5898 44 69.2812V70.6875C44 70.8594 44.0933 71 44.2067 71H57.7933C57.9067 71 58 70.8594 58 70.6875V69.2812C58 68.5898 57.6333 68.0312 57.1767 68.0312H52.2V64.0508C57.71 63.3477 62 57.8789 62 51.2344ZM51 57.875C54.13 57.875 56.6667 54.9375 56.6667 51.3125V42.5625C56.6667 38.9375 54.13 36 51 36C47.87 36 45.3333 38.9375 45.3333 42.5625V51.3125C45.3333 54.9375 47.87 57.875 51 57.875ZM47.8667 42.5625C47.8667 40.5859 49.2633 38.9688 51 38.9688C52.7367 38.9688 54.1333 40.5859 54.1333 42.5625V51.3125C54.1333 53.2891 52.7367 54.9062 51 54.9062C49.2633 54.9062 47.8667 53.2891 47.8667 51.3125V42.5625Z" fill="#00A1FC" fill-opacity="0.98"/>
</g>
<defs>
<filter id="filter0_d" x="0" y="0" width="102" height="115" filterUnits="userSpaceOnUse" color-interpolation-filters="sRGB">
<feFlood flood-opacity="0" result="BackgroundImageFix"/>
<feColorMatrix in="SourceAlpha" type="matrix" values="0 0 0 0 0 0 0 0 0 0 0 0 0 0 0 0 0 0 127 0"/>
<feOffset dy="4"/>
<feGaussianBlur stdDeviation="20"/>
<feColorMatrix type="matrix" values="0 0 0 0 0 0 0 0 0 0 0 0 0 0 0 0 0 0 0.25 0"/>
<feBlend mode="normal" in2="BackgroundImageFix" result="effect1_dropShadow"/>
<feBlend mode="normal" in="SourceGraphic" in2="effect1_dropShadow" result="shape"/>
</filter>
</defs>
</svg>
